<svg id="Laag_1" data-name="Laag 1" xmlns="http://www.w3.org/2000/svg" viewBox="0 0 218.26 257.94"><defs><style>.cls-1{fill:#e94e1b;}</style></defs><title>icon</title><path class="cls-1" d="M205.1,162.37l-69.47,0,.65-.14c.62-.14,1.21-.31,1.78-.49a14.83,14.83,0,0,0,9.58-8.57,16.9,16.9,0,0,0,1.19-6.38V145.7a16.14,16.14,0,0,0,1.92.13,16.44,16.44,0,0,0,2.9-.26l1.15-.21c1.8-.33,3.51-.64,5-.79a86,86,0,0,1,8.71-.45,80.88,80.88,0,0,1,10.74.71,90.14,90.14,0,0,1,18.23,4.23,15.52,15.52,0,0,0,11.06-.31,14.66,14.66,0,0,0,8.75-10.26,15.29,15.29,0,0,0-3.58-13.59q-3.29-3.78-6.61-7.53L205.91,116l-10.35-11.76L180.44,87.07,167.36,72.2,156.54,59.89A14.45,14.45,0,0,0,149.78,55c-.31-.11-.62-.19-.93-.28q0-.21,0-.41c0-2.67,0-5.34,0-8q0-3,0-5.92,1.37.09,2.75.09a48.15,48.15,0,0,0,12.59-1.76,19.8,19.8,0,0,1,4.95-.83,7.51,7.51,0,0,1,.87,0c.6.07,1.32.19,2.08.31,1,.16,2.14.35,3.38.49a14.37,14.37,0,0,0,1.63.09,15.41,15.41,0,0,0,5.07-.88l13.05-3.34L191,21.38l-.08-.27a23.75,23.75,0,0,0-.88-2.58,13.75,13.75,0,0,0-7-7.18c-7.86-3.86-15.23-5.74-22.54-5.74-1.14,0-2.29,0-3.43.14-.78.06-1.57.09-2.33.09a26.17,26.17,0,0,1-13.31-3.6A16.84,16.84,0,0,0,133.18,0a15.71,15.71,0,0,0-14.61,9.78,15.66,15.66,0,0,0-9.35-3.17A14.94,14.94,0,0,0,94.61,19c-.3,1.48-.48,2.86-.64,4.07-.07.5-.13,1-.21,1.49L93.7,25c-7.57-5.65-15-11.22-21.91-16.43a15.66,15.66,0,0,0-9.54-3.37,14.29,14.29,0,0,0-8.62,2.87,16.59,16.59,0,0,0-6.17,10.07c-.31,1.59-.5,3.05-.66,4.34-.08.62-.15,1.23-.25,1.84-.67,4.28-1.32,8.47-2,12.56-.75,4.4-1.4,8-2,11.24C41.73,52,40.89,56,40,59.94l0,.22c-1.22,5.4-2.47,11-3.82,16.38-1.07,4.27-2.3,8.78-3.87,14.18C30.61,96.39,28.91,102.26,27,108s-3.86,11.51-6.18,17.31c-3.69,9.23-7.08,17.2-10.36,24.37C8.78,153.39,6.8,157.1,4.69,161c-.93,1.74-1.86,3.48-2.77,5.24A15,15,0,0,0,4,183.88a14.68,14.68,0,0,0,10.83,4.72,16.13,16.13,0,0,0,6.42-1.38c5.56-2.4,10.89-4.44,16.13-6.21a75.61,75.61,0,0,0-1.11,12.82c0,24.47,11.35,64.1,60.71,64.1,43.41,0,51.44-22.21,54.22-25.56a18.48,18.48,0,0,1,8.68-6.11c9.26-3.19,17.15-8.26,19.27-17.48,1.36-5.93,4.77-8.35,10.74-8.35,8.4,0,20.36-6.49,25.85-17.52C217.07,180.27,224.55,162.37,205.1,162.37Zm-56.26-31V80.61q0-4.75,0-9.51l21.7,24.68L196,124.71q3.89,4.42,7.76,8.85c1.07,1.22.94,2.51-.33,3a2.13,2.13,0,0,1-.73.14h-.09a2.23,2.23,0,0,1-.73-.11A103.58,103.58,0,0,0,181,131.76q-1.49-.2-3-.35l-1-.09-2-.17-1.17-.07-1.82-.09-1.24,0-1.75,0h-1c-1.47,0-2.93,0-4.4.11l-.6,0c-1.54.09-3.08.2-4.63.36-2.4.25-4.78.71-7.15,1.14a3.19,3.19,0,0,1-.55.05h0a2.69,2.69,0,0,1-.44,0l-.1,0-.31-.08-.13-.06-.22-.11-.12-.08-.17-.15-.1-.11a1.47,1.47,0,0,1-.13-.18l-.07-.12a1.43,1.43,0,0,1-.08-.23s0-.07,0-.11h0ZM94.58,83.51c1.45-4.93,2.77-9.9,4-14.88,1.09-4.32,2.06-8.66,3-13l.13-.64c1.06-5,2.09-10,3-15,.4-2.23.75-4.47,1.08-6.71s.65-4.48,1-6.72c.25-1.66.42-3.33.75-5a3.08,3.08,0,0,1,.22-.68c0-.06.06-.11.09-.17a2,2,0,0,1,.24-.35l.13-.14a1.48,1.48,0,0,1,.33-.23l.12-.06a1.49,1.49,0,0,1,.52-.1h0a1.88,1.88,0,0,1,.41.05l.11,0a2.53,2.53,0,0,1,.37.14l.14.06a3.57,3.57,0,0,1,.49.31c4.59,3.42,9.15,6.88,13.73,10.32,1.58,1.19,3.15,2.37,4.73,3.55.33.24.7.44,1.39.87V33.31c0-5.71.11-11.43,0-17.14a3.67,3.67,0,0,1,.07-.8c0-.07,0-.14.05-.21a2.92,2.92,0,0,1,.19-.52l.07-.15a2.53,2.53,0,0,1,.39-.53l.1-.08a2.41,2.41,0,0,1,.42-.31l.16-.09a2.54,2.54,0,0,1,.52-.19l.1,0a2.81,2.81,0,0,1,.57-.06h.08a3.27,3.27,0,0,1,.56.08c.1,0,.19,0,.28.05a4,4,0,0,1,.87.37c.84.48,1.69.92,2.54,1.34l.84.38c.58.27,1.17.53,1.76.76l1,.38c.55.2,1.1.4,1.65.58l1.07.33c.55.16,1.11.31,1.67.44l1.06.25c.59.13,1.19.23,1.8.33l1,.16c.76.11,1.53.18,2.3.24l.51,0q1.33.09,2.68.09H155c1.07,0,2.15,0,3.25-.13q1.2-.1,2.37-.1h.09l.65,0c.58,0,1.15,0,1.72.08l.87.1c.49.05,1,.11,1.45.19l.93.17c.46.09.91.18,1.36.28l.93.23,1.33.37.91.28,1.36.47.85.31c.49.19,1,.4,1.47.6l.7.29q1.08.48,2.14,1l.16.08a1.31,1.31,0,0,1,.31.19.36.36,0,0,1,.09.12c.23.55.37,1.13.55,1.69l-.39.12-.35.12-.14,0-.24.06-.15,0-.16,0h-.13c-1.82-.21-3.61-.59-5.43-.8a20.51,20.51,0,0,0-2.21-.13h-.32c-.62,0-1.23,0-1.85.08l-.4,0q-.84.08-1.67.21l-.24,0c-.61.1-1.23.22-1.84.36l-.43.1c-.61.14-1.21.29-1.82.45s-1.37.35-2.06.5l-.62.13q-.75.15-1.49.27l-.68.1q-.83.12-1.66.19l-.44,0q-1,.08-2.09.08h-.46q-.92,0-1.84-.08l-.63-.05c-.76-.08-1.51-.17-2.27-.32-3.28-.63-6.53-1.42-9.78-2.22a2,2,0,0,0-.41-.06h-.08a.63.63,0,0,0-.29.07h0a.43.43,0,0,0-.15.18l0,0a1.06,1.06,0,0,0-.06.28v.07c0,.11,0,.22,0,.34,0,4.5,0,9,0,13.49,0,5.1.08,10.21.08,15.31q0,1.18,0,2.35,0,17.57,0,35.14v.54q0,18.77,0,37.54V132q0,6.94,0,13.89c0,.32,0-9.36,0-3.81,0,12.3-19.29,23-41.54,22-30.95-1.47-39.93,15-39.34,14,.3-9.87,25.78-44,36.75-84.21C92.46,90.35,93.57,86.94,94.58,83.51ZM48.79,183s-.06.07-.09.11c.08-.21.17-.39.26-.6Zm-1.42-21a17,17,0,0,0-1.18,2.62c-1.5.4-3,.81-4.48,1.23l-.37.1q-6.48,1.87-12.8,4.19t-12.5,5a4.27,4.27,0,0,1-.57.2h0a2.35,2.35,0,0,1-.55.08h-.05l-.17,0-.13,0-.18-.05-.12,0-.19-.11-.1-.06a1.87,1.87,0,0,1-.26-.23h0a1.67,1.67,0,0,1-.47-.93,2.78,2.78,0,0,1,.42-1.6c3-5.73,6.19-11.36,8.86-17.23q1.41-3.08,2.77-6.19c2.72-6.21,5.32-12.47,7.84-18.76q.89-2.23,1.73-4.48c1.12-3,2.18-6,3.21-9q.77-2.27,1.52-4.55c1-2.93,1.88-5.87,2.77-8.83s1.75-5.92,2.61-8.88c1.41-4.86,2.77-9.75,4-14.66q1.05-4.21,2-8.44t1.92-8.46q.68-3,1.33-6.08t1.24-6.1q.57-2.89,1.09-5.78t1-5.79c.72-4.24,1.39-8.49,2-12.74.29-1.88.44-3.79.81-5.65a4.39,4.39,0,0,1,.16-.58,4.33,4.33,0,0,1,.24-.57,2.68,2.68,0,0,1,.73-.92h0a1.21,1.21,0,0,1,.32-.17l.11,0,.24,0h.11a1.55,1.55,0,0,1,.31,0h.06a2.41,2.41,0,0,1,.37.14l.1.05.28.16.1.06.34.24Q75.59,27.91,87.35,36.7a2.74,2.74,0,0,1,1.21,2.43c0,4.81,0,9.62,0,14.44h0c-1,4.55-1.84,8.34-2.73,11.84-1.41,5.6-2.65,10.17-3.89,14.38l-.29,1c-1.94,6.58-3.77,12.8-5.88,19-2.37,6.95-5,13.88-7.58,20.33-2.85,7.25-6.12,14.56-9.76,21.81q-1.66,3.31-3.41,6.6c-1.64,3.06-3.37,6.06-5.2,9.25Q48.59,159.87,47.38,162Zm55.57,85.18c-5.32,0-10-1.66-12.05-5.69a7.3,7.3,0,0,1,3.26-9.83,11.9,11.9,0,0,1,5.12-1.13c5.36-.14,37.84-.63,38.81-.35C137.69,231.05,128.24,247.17,102.95,247.17ZM166.11,207c-4,6.61-11,9.66-19,10.71-8.15,1.08-16.57,1.19-24.92,1.42-7.84.22-15.73.07-23.61.07C79.43,219.23,77,233.11,76,233.61c-3.63-5.62-4.28-11.15-2.46-16.47,3.12-9.13,10.26-14.52,21.09-14.69,22.78-.36,45.63-.19,68.46-.17C167.25,202.28,168.11,203.75,166.11,207Zm37.19-27.55c-4,6.28-10.9,9-18.52,10.27a97.77,97.77,0,0,1-15.89,1.35c-24.15.15-48.33.09-72.5.09-43.81,0-37,37.27-37.41,37.38a28,28,0,0,1-2.28-2.75,33,33,0,0,1-2.1-32.33c1.59-3.24,12-19,40.39-19,40.8,0,110.32,0,110.32,0A36,36,0,0,1,203.29,179.47Z"/></svg>